<?xml version="1.0" standalone="no"?>
<!DOCTYPE svg PUBLIC "-//W3C//DTD SVG 20010904//EN"
 "http://www.w3.org/TR/2001/REC-SVG-20010904/DTD/svg10.dtd">
<svg version="1.0" xmlns="http://www.w3.org/2000/svg"
 width="400.000000pt" height="400.000000pt" viewBox="0 0 400.000000 400.000000"
 preserveAspectRatio="xMidYMid meet">
<metadata>
Created by potrace 1.11, written by Peter Selinger 2001-2013
</metadata>
<g transform="translate(0.000000,400.000000) scale(0.100000,-0.100000)"
fill="#000000" stroke="none">
<path d="M1845 3145 c-82 -272 -153 -495 -156 -495 -4 0 -150 77 -325 171
-176 94 -336 180 -357 191 l-39 19 35 -63 c86 -156 347 -649 347 -656 0 -4
-223 -75 -495 -157 -272 -83 -495 -152 -495 -155 0 -3 223 -72 495 -155 272
-82 495 -153 495 -156 0 -4 -77 -150 -171 -325 -94 -176 -180 -336 -191 -357
l-19 -39 63 35 c156 86 649 347 656 347 4 0 75 -223 157 -495 83 -272 152
-495 155 -495 3 0 72 223 155 495 82 272 153 495 156 495 4 0 150 -77 325
-171 176 -94 336 -180 357 -191 l39 -19 -35 63 c-86 156 -347 649 -347 656 0
4 223 75 495 157 272 83 495 152 495 155 0 3 -223 72 -495 155 -272 82 -495
153 -495 156 0 4 77 150 171 325 94 176 180 336 191 357 l19 39 -63 -35 c-156
-86 -649 -347 -656 -347 -4 0 -75 223 -157 495 -83 272 -152 495 -155 495 -3
0 -72 -223 -155 -495z m278 -498 c65 -215 121 -395 125 -399 4 -4 184 -60 399
-125 216 -65 393 -120 393 -123 0 -3 -177 -58 -393 -123 -215 -65 -395 -121
-399 -125 -4 -4 -60 -184 -125 -399 -65 -216 -120 -393 -123 -393 -3 0 -58
177 -123 393 -65 215 -121 395 -125 399 -4 4 -184 60 -399 125 -216 65 -393
120 -393 123 0 3 177 58 393 123 215 65 395 121 399 125 4 4 60 184 125 399
65 216 120 393 123 393 3 0 58 -177 123 -393z"/>
</g>
</svg>
